PathFileType  4	(X/Y/Z) C:\Users\antoi\Documents\MyRepositories\mobilecap\ResultsAnalysis
DataRate	CameraRate	NumFrames	NumMarkers	Units	OrigDataRate	OrigDataStartFrame	OrigNumFrames
100.0	100.0	4	51	mm	100.0	173	197
Frame#	Time	r_knee			r_shank_antsup			r_ankle			r_calc			r_5meta			r_toe			L_knee			L_shank_antsup			L_ankle			L_calc			L_5meta			L_toe			r_sh2			r_sh3			r_sh4			L_sh2			L_sh3			r_thigh1			r_thigh2			r_thigh3			r_thigh4			r_thigh5			L_thigh1			L_thigh2			L_thigh3			L_thigh4			r.ASIS			r.PSIS			L.ASIS			L.PSIS			C7			R_Shoulder			L_Shoulder			R_Sternum			L_Sternum			R_humerus			R_elbow_med			R_elbow_lat			R_forearm			R_wrist_radius			R_wrist_ulna			L_humerus			L_elbow_med			L_elbow_lat			L_forearm			L_wrist_radius			L_wrist_ulna			R_HJC			L_HJC			R_HJC_reg			L_HJC_reg			
		X1	Y1	Z1	X2	Y2	Z2	X3	Y3	Z3	X4	Y4	Z4	X5	Y5	Z5	X6	Y6	Z6	X7	Y7	Z7	X8	Y8	Z8	X9	Y9	Z9	X10	Y10	Z10	X11	Y11	Z11	X12	Y12	Z12	X13	Y13	Z13	X14	Y14	Z14	X15	Y15	Z15	X16	Y16	Z16	X17	Y17	Z17	X18	Y18	Z18	X19	Y19	Z19	X20	Y20	Z20	X21	Y21	Z21	X22	Y22	Z22	X23	Y23	Z23	X24	Y24	Z24	X25	Y25	Z25	X26	Y26	Z26	X27	Y27	Z27	X28	Y28	Z28	X29	Y29	Z29	X30	Y30	Z30	X31	Y31	Z31	X32	Y32	Z32	X33	Y33	Z33	X34	Y34	Z34	X35	Y35	Z35	X36	Y36	Z36	X37	Y37	Z37	X38	Y38	Z38	X39	Y39	Z39	X40	Y40	Z40	X41	Y41	Z41	X42	Y42	Z42	X43	Y43	Z43	X44	Y44	Z44	X45	Y45	Z45	X46	Y46	Z46	X47	Y47	Z47	X48	Y48	Z48	X49	Y49	Z49	X50	Y50	Z50	X51	Y51	Z51	

173	1.72000000	-217.43276	712.96918	-338.15005	-174.83175	644.44364	-342.50773	-257.16740	306.92019	-320.16701	-318.92700	314.74460	-370.94316	-200.38018	199.56085	-285.22384	-135.30272	203.00891	-324.19580	-192.34767	769.10742	-742.49228	-160.09354	683.96171	-771.80509	-207.57712	370.15608	-799.95212	-263.73365	338.43649	-739.33434	-129.07824	293.75280	-869.27669	-71.94923	310.50894	-830.05366	-202.76097	535.80319	-311.07353	-253.68287	660.66567	-326.02309	-274.16663	548.72995	-313.86136	-247.61287	687.95199	-753.79219	-246.35065	568.76286	-784.03423	-190.64789	1032.20408	-328.00793	-186.19783	920.33847	-324.92771	-244.86112	893.58987	-311.00606	-303.10043	1023.79142	-339.73394	-293.57441	907.70364	-335.45033	-206.64921	1044.52813	-739.54505	-171.24961	910.82468	-740.88322	-311.27045	1012.93788	-698.16094	-271.19738	879.01143	-714.78515	-155.63149	1177.15611	-379.19706	-333.66699	1260.41457	-440.65445	-162.67260	1204.59049	-627.78045	-346.01966	1282.72328	-534.57079	-166.55481	1653.70831	-476.46504	-88.68525	1582.78143	-307.99095	-96.02214	1604.12350	-646.00018	-40.37143	1573.33578	-450.38932	-36.56746	1579.07512	-497.67027	-146.15751	1454.42695	-251.45549	-278.04033	1289.60694	-320.44322	-263.82180	1289.04090	-248.54687	-186.18042	1166.78012	-248.71218	-134.59403	1052.07443	-262.07514	-159.23745	1030.79445	-249.34768	-96.22088	1501.02562	-717.24264	-189.66587	1273.90914	-708.01126	-135.81478	1299.73148	-768.67749	-56.24655	1291.99380	-688.34324	41.63313	1259.67939	-585.97825	58.74026	1240.97272	-609.36808	-246.87910	1117.31866	-407.99594	-254.93440	1146.77383	-612.19784	-232.46356	1110.98888	-419.70910	-253.41823	1148.84480	-579.06538	
174	1.73000000	-216.70159	708.12697	-336.24151	-174.70935	640.14066	-339.91789	-254.90869	302.34065	-317.52750	-315.91811	308.40192	-369.66411	-197.43538	196.19115	-280.35222	-132.07084	199.47081	-318.78094	-191.53362	763.33269	-741.94633	-158.87898	678.14378	-770.77181	-208.33713	364.81954	-799.90049	-266.10335	333.37412	-741.04990	-129.03759	288.57186	-868.64548	-72.49620	304.28172	-826.94685	-202.64618	531.13184	-308.42503	-253.99704	655.43627	-325.26444	-273.88307	543.50330	-312.97259	-246.67818	682.88609	-754.65880	-245.66654	563.67375	-785.31695	-193.26174	1028.20993	-326.96015	-187.23463	915.98994	-323.81259	-245.26719	888.95968	-308.18718	-305.58636	1017.97057	-338.61119	-294.42308	902.04791	-332.59770	-205.52065	1038.62149	-739.53964	-170.46440	904.89803	-740.29355	-310.49247	1007.47158	-698.62192	-270.58733	873.33553	-714.95181	-156.33994	1172.18204	-378.71255	-334.45210	1255.21970	-440.19360	-161.99784	1201.09766	-627.67109	-345.88782	1277.93742	-533.66474	-165.43582	1647.24362	-473.82235	-88.91359	1576.23145	-305.53357	-94.54994	1598.75042	-643.60460	-39.43304	1567.03536	-447.13527	-35.54355	1572.61672	-495.10948	-145.94008	1447.61712	-249.58526	-277.76475	1282.58282	-319.32283	-264.16164	1282.46731	-247.19081	-186.45210	1160.28722	-245.34968	-134.10049	1045.60478	-257.31808	-159.01954	1024.35364	-244.95881	-95.43123	1495.78268	-715.97182	-188.64881	1268.67259	-706.95244	-135.12749	1294.62431	-767.36537	-55.22958	1287.55888	-687.17796	43.15928	1255.88169	-585.06914	60.23191	1237.15323	-608.59812	-247.01572	1112.10903	-408.29100	-254.39152	1142.96014	-612.31062	-233.10499	1105.87608	-420.47336	-252.63696	1144.68014	-580.12608	
175	1.74000000	-215.39299	702.24229	-334.62014	-174.05261	634.84493	-337.54121	-252.27186	296.55425	-315.13954	-313.13936	301.35740	-367.67149	-194.09296	191.77912	-276.03716	-128.71288	194.99405	-314.55939	-190.24704	756.53369	-741.35063	-156.91670	671.28733	-769.50264	-209.42329	358.70735	-799.93636	-269.23197	327.32361	-743.48887	-128.60866	282.16211	-866.53108	-73.10199	297.49845	-823.03128	-201.67612	525.67814	-305.90616	-253.63909	649.31995	-324.28771	-272.97453	537.25366	-311.84955	-245.06228	677.26195	-755.94614	-244.81185	557.84169	-786.61337	-194.87463	1022.95627	-326.28170	-187.33992	910.50178	-323.12247	-245.02439	883.50766	-304.94678	-307.24324	1011.35570	-336.51096	-294.54668	895.40581	-329.58299	-204.44523	1031.73617	-739.59902	-169.52863	898.02617	-740.02943	-309.70942	1000.76659	-698.74541	-269.78615	866.64970	-715.09653	-157.52530	1166.29690	-378.25400	-335.27409	1249.39496	-440.09044	-161.51195	1196.30794	-627.45637	-345.73467	1272.32546	-533.35529	-164.28734	1639.73696	-471.22919	-89.29433	1568.65015	-303.01044	-92.84321	1592.24275	-641.13690	-38.49290	1559.68433	-444.00835	-34.50912	1565.14682	-492.55161	-145.91757	1439.64813	-247.66936	-277.28023	1274.39346	-317.97020	-264.22295	1274.49964	-245.86796	-186.52679	1152.58454	-241.91341	-133.39560	1038.10376	-252.30299	-158.61047	1016.78937	-240.61193	-94.53851	1489.58039	-714.56384	-187.47416	1262.18794	-705.36640	-134.37776	1288.58348	-766.20837	-54.17464	1281.96784	-686.06292	44.47520	1250.72757	-583.96819	61.47722	1231.92170	-607.36185	-247.69426	1106.15007	-408.58339	-254.05134	1138.01766	-612.48016	-234.27185	1100.16962	-421.04074	-252.22318	1139.49282	-580.98120	
176	1.75000000	-213.80138	695.34753	-333.09540	-172.91104	628.29316	-335.46960	-249.49827	289.65264	-312.67530	-310.73618	293.52721	-364.88294	-190.23056	186.29200	-272.40414	-124.61550	190.09587	-311.00745	-188.51421	748.91955	-740.78581	-154.42289	663.40352	-767.75361	-210.62052	351.91466	-800.22883	-272.77515	320.48133	-746.35402	-127.91354	274.28020	-863.04394	-73.90952	289.81361	-818.39911	-199.98691	519.20928	-303.72727	-252.55844	642.55946	-322.70047	-271.49530	530.18875	-310.09707	-242.86070	670.99126	-757.37457	-243.63055	551.46781	-787.80948	-195.69853	1016.31672	-326.02436	-186.91229	904.02660	-322.39255	-244.16127	876.96933	-301.94067	-308.23373	1003.85297	-333.77618	-294.10407	887.86883	-326.56383	-203.51049	1024.06197	-739.67253	-168.43813	890.30797	-739.85748	-308.86238	992.92912	-698.80569	-268.79684	858.98864	-715.10454	-159.16607	1159.51326	-377.71624	-336.11929	1242.80909	-440.34709	-161.16227	1189.99798	-626.90835	-345.77622	1266.14649	-533.22612	-163.05385	1631.23932	-468.80007	-89.73120	1559.97155	-300.47426	-90.97769	1584.68597	-638.67240	-37.55726	1551.12146	-441.30386	-33.40099	1556.67139	-490.03349	-146.09290	1430.68020	-245.58564	-276.15215	1265.15059	-316.48560	-264.22064	1265.22828	-244.55248	-186.41557	1143.85473	-238.50388	-132.57783	1029.63750	-247.24736	-157.98915	1008.18727	-236.32223	-93.37631	1482.44276	-712.96608	-186.11047	1254.42832	-703.51082	-133.47651	1281.66089	-765.29761	-53.10083	1275.24625	-685.06857	45.54505	1244.26560	-582.83670	62.59582	1225.46778	-606.11021	-248.97873	1099.42865	-408.66914	-254.01026	1131.90605	-612.50905	-235.56954	1093.18534	-421.54539	-252.18698	1133.35931	-581.44572	
